<svg width="24" height="16" viewBox="0 0 24 16" xmlns="http://www.w3.org/2000/svg" xmlns:xlink="http://www.w3.org/1999/xlink"><title>flag-np</title><defs><path id="a" d="M0 0h24v16H0z"/><mask id="b" x="0" y="0" width="24" height="16" fill="#fff"><use xlink:href="#a"/></mask></defs><g fill="none" fill-rule="evenodd"><path stroke="#3465AE" stroke-width="2" fill="#003893" d="M1.036 7.973h11.197L1.036 1.75V15h11.197L1.036 5.062z"/><path fill="#E84550" d="M1.619 2.584l8.715 5.031H1.62z"/><path fill="#E84550" d="M1.619 5.7l9.417 8.925H1.619z"/><path d="M3.79 6.956c.885 0 1.603-.632 1.603-1.412-.14.314-.395.576-.72.747l-.137-.09.27-.178-.327-.073.173-.256-.334.042.048-.294-.29.152-.084-.288-.202.238-.202-.238-.083.288-.29-.152.048.294-.334-.042.172.255-.327.074.27.178-.137.09a1.58 1.58 0 0 1-.72-.747c0 .78.718 1.412 1.603 1.412zM3.588 11.459l-.537-.068.326.44v.001l-.498.215.498.216-.326.44.537-.067-.066.548.431-.332.211.508.211-.508.432.332-.066-.548.537.068-.326-.441.498-.216-.498-.215.326-.44-.537.067.066-.548-.431.332-.212-.508-.21.508-.432-.332.066.548z" fill="#FFF"/><g stroke="#E6E6E6"><use mask="url(#b)" xlink:href="#a"/></g></g></svg>